<svg width="24" height="24" viewBox="0 0 24 24" fill="none" xmlns="http://www.w3.org/2000/svg">
<g clip-path="url(#clip0_1232_2626)">
<path d="M15.1005 1.305C14.6968 0.89181 14.2145 0.56349 13.682 0.339334C13.1496 0.115177 12.5777 -0.000293732 12 -0.000293732C11.4223 -0.000293732 10.8504 0.115177 10.318 0.339334C9.78554 0.56349 9.30327 0.89181 8.89951 1.305L7.96651 2.262L6.63151 2.2455C6.05364 2.23866 5.48023 2.34744 4.94501 2.56543C4.40978 2.78343 3.92355 3.10624 3.5149 3.51489C3.10625 3.92354 2.78344 4.40977 2.56545 4.94499C2.34745 5.48022 2.23867 6.05362 2.24551 6.6315L2.26051 7.9665L1.30651 8.8995C0.893324 9.30326 0.565004 9.78553 0.340848 10.318C0.116692 10.8504 0.0012207 11.4223 0.0012207 12C0.0012207 12.5777 0.116692 13.1496 0.340848 13.682C0.565004 14.2145 0.893324 14.6967 1.30651 15.1005L2.26201 16.0335L2.24551 17.3685C2.23867 17.9464 2.34745 18.5198 2.56545 19.055C2.78344 19.5902 3.10625 20.0765 3.5149 20.4851C3.92355 20.8938 4.40978 21.2166 4.94501 21.4346C5.48023 21.6526 6.05364 21.7613 6.63151 21.7545L7.96651 21.7395L8.89951 22.6935C9.30327 23.1067 9.78554 23.435 10.318 23.6592C10.8504 23.8833 11.4223 23.9988 12 23.9988C12.5777 23.9988 13.1496 23.8833 13.682 23.6592C14.2145 23.435 14.6968 23.1067 15.1005 22.6935L16.0335 21.738L17.3685 21.7545C17.9464 21.7613 18.5198 21.6526 19.055 21.4346C19.5902 21.2166 20.0765 20.8938 20.4851 20.4851C20.8938 20.0765 21.2166 19.5902 21.4346 19.055C21.6526 18.5198 21.7614 17.9464 21.7545 17.3685L21.7395 16.0335L22.6935 15.1005C23.1067 14.6967 23.435 14.2145 23.6592 13.682C23.8833 13.1496 23.9988 12.5777 23.9988 12C23.9988 11.4223 23.8833 10.8504 23.6592 10.318C23.435 9.78553 23.1067 9.30326 22.6935 8.8995L21.738 7.9665L21.7545 6.6315C21.7614 6.05362 21.6526 5.48022 21.4346 4.94499C21.2166 4.40977 20.8938 3.92354 20.4851 3.51489C20.0765 3.10624 19.5902 2.78343 19.055 2.56543C18.5198 2.34744 17.9464 2.23866 17.3685 2.2455L16.0335 2.2605L15.1005 1.305ZM15.531 10.281L11.031 14.781C10.9613 14.8508 10.8786 14.9063 10.7875 14.9441C10.6963 14.9819 10.5987 15.0013 10.5 15.0013C10.4014 15.0013 10.3037 14.9819 10.2126 14.9441C10.1214 14.9063 10.0387 14.8508 9.96901 14.781L7.71901 12.531C7.64928 12.4613 7.59397 12.3785 7.55623 12.2874C7.51849 12.1963 7.49907 12.0986 7.49907 12C7.49907 11.9014 7.51849 11.8037 7.55623 11.7126C7.59397 11.6215 7.64928 11.5387 7.71901 11.469C7.78874 11.3993 7.87153 11.344 7.96264 11.3062C8.05375 11.2685 8.1514 11.2491 8.25001 11.2491C8.34863 11.2491 8.44628 11.2685 8.53739 11.3062C8.6285 11.344 8.71128 11.3993 8.78101 11.469L10.5 13.1895L14.469 9.219C14.6098 9.07817 14.8008 8.99905 15 8.99905C15.1992 8.99905 15.3902 9.07817 15.531 9.219C15.6718 9.35983 15.751 9.55084 15.751 9.75C15.751 9.94916 15.6718 10.1402 15.531 10.281Z" fill="#09A3BE"/>
</g>
<defs>
<clipPath id="clip0_1232_2626">
<rect width="24" height="24" fill="white"/>
</clipPath>
</defs>
</svg>
