<svg width="25" height="25" viewBox="0 0 25 25" fill="none" xmlns="http://www.w3.org/2000/svg">
<path d="M12.5 13.9896C12.9268 13.9896 13.3494 13.9055 13.7437 13.7422C14.138 13.5788 14.4963 13.3395 14.7981 13.0377C15.0999 12.7359 15.3393 12.3776 15.5026 11.9833C15.6659 11.589 15.75 11.1664 15.75 10.7396C15.75 10.3128 15.6659 9.89015 15.5026 9.49584C15.3393 9.10153 15.0999 8.74326 14.7981 8.44147C14.4963 8.13968 14.138 7.90028 13.7437 7.73695C13.3494 7.57363 12.9268 7.48956 12.5 7.48956C11.638 7.48956 10.8114 7.83197 10.2019 8.44147C9.59241 9.05096 9.25 9.87761 9.25 10.7396C9.25 11.6015 9.59241 12.4282 10.2019 13.0377C10.8114 13.6472 11.638 13.9896 12.5 13.9896Z" stroke="white" stroke-width="1.5"/>
<path d="M3.77045 8.84373C5.82253 -0.177101 19.1871 -0.166685 21.2288 8.85415C22.4267 14.1458 19.135 18.625 16.2496 21.3958C15.2414 22.3682 13.8952 22.9116 12.4944 22.9116C11.0936 22.9116 9.74745 22.3682 8.7392 21.3958C5.8642 18.625 2.57253 14.1354 3.77045 8.84373Z" stroke="white" stroke-width="1.5"/>
</svg>
