<svg width="20" height="22" viewBox="0 0 20 22" fill="none" xmlns="http://www.w3.org/2000/svg">
<path d="M18.59 21C18.59 17.13 14.74 14 10 14C5.26003 14 1.41003 17.13 1.41003 21M10 11C11.3261 11 12.5979 10.4732 13.5356 9.53553C14.4733 8.59785 15 7.32608 15 6C15 4.67392 14.4733 3.40215 13.5356 2.46447C12.5979 1.52678 11.3261 1 10 1C8.67395 1 7.40218 1.52678 6.4645 2.46447C5.52682 3.40215 5.00003 4.67392 5.00003 6C5.00003 7.32608 5.52682 8.59785 6.4645 9.53553C7.40218 10.4732 8.67395 11 10 11Z" stroke="black" stroke-width="1.5" stroke-linecap="round" stroke-linejoin="round"/>
</svg>
