<svg width="35" height="35" viewBox="0 0 24 24" fill="none" xmlns="http://www.w3.org/2000/svg">
<path d="M6 2C4.93913 2 3.92172 2.42143 3.17157 3.17157C2.42143 3.92172 2 4.93913 2 6V9H4V6C4 5.46957 4.21071 4.96086 4.58579 4.58579C4.96086 4.21071 5.46957 4 6 4H18C18.5304 4 19.0391 4.21071 19.4142 4.58579C19.7893 4.96086 20 5.46957 20 6V18C20 18.5304 19.7893 19.0391 19.4142 19.4142C19.0391 19.7893 18.5304 20 18 20H6C5.46957 20 4.96086 19.7893 4.58579 19.4142C4.21071 19.0391 4 18.5304 4 18V15H2V18C2 19.0609 2.42143 20.0783 3.17157 20.8284C3.92172 21.5786 4.93913 22 6 22H18C19.0609 22 20.0783 21.5786 20.8284 20.8284C21.5786 20.0783 22 19.0609 22 18V6C22 4.93913 21.5786 3.92172 20.8284 3.17157C20.0783 2.42143 19.0609 2 18 2H6Z" fill="#000"/>
<path d="M3 10.9999C2.73478 10.9999 2.48043 11.1053 2.29289 11.2928C2.10536 11.4803 2 11.7347 2 11.9999C2 12.2651 2.10536 12.5195 2.29289 12.707C2.48043 12.8946 2.73478 12.9999 3 12.9999H12.582L10.047 15.5359C9.86484 15.7245 9.76405 15.9771 9.76633 16.2393C9.7686 16.5015 9.87377 16.7523 10.0592 16.9377C10.2446 17.1231 10.4954 17.2283 10.7576 17.2306C11.0198 17.2329 11.2724 17.1321 11.461 16.9499L15.657 12.7539C15.765 12.6602 15.8517 12.5444 15.9111 12.4143C15.9704 12.2842 16.0012 12.1429 16.0012 11.9999C16.0012 11.8569 15.9704 11.7156 15.9111 11.5855C15.8517 11.4554 15.765 11.3396 15.657 11.2459L11.46 7.04992C11.3678 6.95441 11.2574 6.87822 11.1354 6.82582C11.0134 6.77341 10.8822 6.74582 10.7494 6.74467C10.6166 6.74351 10.4849 6.76881 10.362 6.8191C10.2391 6.86938 10.1275 6.94363 10.0336 7.03752C9.93971 7.13141 9.86546 7.24307 9.81518 7.36596C9.7649 7.48886 9.7396 7.62054 9.74075 7.75332C9.7419 7.8861 9.76949 8.01732 9.8219 8.13932C9.87431 8.26133 9.95049 8.37167 10.046 8.46392L12.582 10.9999H3Z" fill="#000"/>
</svg>
