<svg width="35" height="35" viewBox="0 0 32 32" fill="none" xmlns="http://www.w3.org/2000/svg">
<path d="M13.165 11H9.18998C8.24498 11 7.47998 11.765 7.47998 12.71V20.39H13.165V11Z" stroke="#000" stroke-width="2" stroke-miterlimit="10" stroke-linecap="round" stroke-linejoin="round"/>
<path d="M17.1415 8H14.8615C13.9165 8 13.1515 8.765 13.1515 9.71V24.2H18.8365V9.71C18.8365 8.765 18.0865 8 17.1415 8ZM22.822 17.375H18.847V24.2H24.532V19.085C24.517 18.14 23.752 17.375 22.822 17.375Z" stroke="#000" stroke-width="2" stroke-miterlimit="10" stroke-linecap="round" stroke-linejoin="round"/>
<path d="M11.5 31H20.5C28 31 31 28 31 20.5V11.5C31 4 28 1 20.5 1H11.5C4 1 1 4 1 11.5V20.5C1 28 4 31 11.5 31Z" stroke="#000" stroke-width="2" stroke-linecap="round" stroke-linejoin="round"/>
</svg>
